<?xml version="1.0" encoding="UTF-8"?>
<svg version="1.1" xmlns="http://www.w3.org/2000/svg" width="847" height="432">
<path d="M0 0 C279.51 0 559.02 0 847 0 C847 142.56 847 285.12 847 432 C567.49 432 287.98 432 0 432 C0 289.44 0 146.88 0 0 Z " fill="#FEFEFE" transform="translate(0,0)"/>
<path d="M0 0 C213.18 0 426.36 0 646 0 C646 88.11 646 176.22 646 267 C432.82 267 219.64 267 0 267 C0 178.89 0 90.78 0 0 Z " fill="#FCFDFD" transform="translate(114,79)"/>
<path d="M0 0 C0.65850598 -0.00581376 1.31701196 -0.01162753 1.99547267 -0.01761746 C4.21185855 -0.0322672 6.42714555 -0.01831037 8.64352417 -0.00457001 C10.24455394 -0.00917699 11.84557949 -0.01552855 13.44659615 -0.02347898 C17.85376147 -0.04022339 22.26058166 -0.03190287 26.66774845 -0.01953411 C31.41765276 -0.01050677 36.16749652 -0.02444181 40.91738892 -0.0354538 C50.22543882 -0.05326842 59.53335992 -0.04938595 68.84141493 -0.03780323 C76.40422596 -0.02878074 83.96700081 -0.02753977 91.52981567 -0.0318985 C92.60495898 -0.03251143 93.68010229 -0.03312436 94.7878257 -0.03375587 C96.97175265 -0.03503473 99.15567959 -0.03633158 101.33960652 -0.03764623 C121.83281931 -0.04906066 142.32596059 -0.03592481 162.81916165 -0.01444477 C180.41478576 0.00342698 198.01030432 0.00032312 215.60592651 -0.01811981 C236.02429633 -0.03951131 256.44260344 -0.04796194 276.86098289 -0.03567076 C279.03701145 -0.03439652 281.21304002 -0.03313904 283.3890686 -0.0318985 C284.99516658 -0.03097285 284.99516658 -0.03097285 286.63371098 -0.03002849 C294.19007756 -0.02657042 301.74640446 -0.03241376 309.30276489 -0.04181671 C318.50768346 -0.05301897 327.71246554 -0.05003407 336.91736841 -0.02869374 C341.61658652 -0.01815938 346.31557682 -0.01410194 351.0147934 -0.02729034 C355.31291871 -0.03917091 359.61060411 -0.03272386 363.90868926 -0.01138014 C365.46717255 -0.00689558 367.02569267 -0.00922167 368.58415246 -0.01888329 C370.6962646 -0.03097729 372.80685288 -0.01864653 374.91888428 0 C376.09384901 0.00064941 377.26881374 0.00129882 378.47938347 0.00196791 C382.09472253 0.61025087 383.27758887 1.60496846 385.45944214 4.50336456 C385.9628067 7.49598598 385.9628067 7.49598598 385.96737671 11.06291962 C385.97673665 12.04893232 385.97673665 12.04893232 385.98628569 13.05486447 C386.00223236 15.256081 385.98960615 17.45619268 385.97702026 19.6574173 C385.98244074 21.23608801 385.98956299 22.81475367 385.9982605 24.39340973 C386.0165073 28.68068792 386.00942046 32.96758139 385.99674416 37.25486636 C385.98662169 41.74087233 385.9960079 46.22684522 386.00228882 50.71285248 C386.00956818 58.24765693 385.99997077 65.78230461 385.98092651 73.31708527 C385.95916507 82.02748006 385.96620261 90.73750024 385.98823214 99.44788593 C386.00638736 106.92572245 386.00894363 114.40344621 385.99847746 121.88129765 C385.99224217 126.34773813 385.99140766 130.81400258 386.00462341 135.28043175 C386.01618284 139.48058847 386.00815478 143.68026265 385.98504639 147.88036728 C385.97975941 149.42147966 385.98127295 150.96263268 385.99009705 152.50372887 C386.00103774 154.60864178 385.98730982 156.71201117 385.96737671 158.81682587 C385.96511456 160.58302355 385.96511456 160.58302355 385.9628067 162.384902 C385.3358882 166.26881045 384.2501377 167.75129336 381.45944214 170.50336456 C378.47938347 171.13011038 378.47938347 171.13011038 374.91888428 171.13257027 C374.2603783 171.13983747 373.60187232 171.14710467 372.92341161 171.1545921 C370.70681844 171.17290598 368.49194192 171.15545981 366.27536011 171.13828278 C364.67432709 171.14404152 363.07330067 171.15198097 361.47228813 171.161919 C357.06505838 171.18284981 352.65836787 171.17244908 348.25113583 171.15698791 C343.50121793 171.1457037 338.75139464 171.16312251 334.00149536 171.17688751 C324.69342227 171.19915585 315.38555042 171.19430274 306.07746935 171.17982431 C298.51465226 171.16854619 290.95189169 171.16699497 283.3890686 171.17244339 C282.31392529 171.17320956 281.23878198 171.17397572 280.13105857 171.1747651 C277.94713162 171.17636368 275.76320468 171.17798475 273.57927775 171.17962806 C253.08604937 171.1938961 232.59293269 171.17747629 212.09972262 171.15062623 C194.50407837 171.12828651 176.90859904 171.13216634 159.31295776 171.15522003 C138.894578 171.18195941 118.47629621 171.1925227 98.05790138 171.17715871 C95.88187283 171.17556592 93.70584426 171.17399406 91.52981567 171.17244339 C90.45908369 171.17167201 89.38835171 171.17090063 88.2851733 171.17010588 C80.72879813 171.16578329 73.17248495 171.17308746 65.61611938 171.18484116 C56.41117228 171.19884402 47.20643844 171.19511291 38.00151587 171.16843744 C33.30225476 171.15526938 28.6033496 171.15019755 23.90409088 171.1666832 C19.60587556 171.18153421 15.30834758 171.17347551 11.01019502 171.14679544 C9.45171423 171.14118975 7.89317589 171.14409747 6.33473182 171.15617438 C4.22231902 171.17129404 2.11228663 171.15588124 0 171.13257027 C-1.7624471 171.13135262 -1.7624471 171.13135262 -3.56049919 171.13011038 C-6.54055786 170.50336456 -6.54055786 170.50336456 -8.91788244 168.15894312 C-10.95454299 164.82585998 -11.04350478 162.71098448 -11.04849243 158.81682587 C-11.05785238 157.82847318 -11.05785238 157.82847318 -11.06740141 156.82015377 C-11.08331369 154.61970729 -11.07073548 152.42037133 -11.05813599 150.2199173 C-11.06355789 148.63947658 -11.07068093 147.05904091 -11.07937622 145.47861481 C-11.09760309 141.19146277 -11.09054518 136.90469599 -11.07785988 132.61753726 C-11.06773066 128.13106929 -11.07712517 123.64463424 -11.08340454 119.15816498 C-11.09068043 111.62514067 -11.08109403 104.09227326 -11.06204224 96.55927277 C-11.04026567 87.84826927 -11.04733071 79.13764015 -11.06934786 70.4266457 C-11.08749414 62.9479554 -11.09006421 55.46937785 -11.07959318 47.99067265 C-11.073355 43.52372001 -11.07253164 39.05694341 -11.08573914 34.59000206 C-11.09728613 30.39147646 -11.08929335 26.19343413 -11.06616211 21.99496078 C-11.06086914 20.45342754 -11.06239888 18.91185367 -11.07121277 17.37033653 C-11.08212945 15.2673136 -11.0684549 13.16584333 -11.04849243 11.06291962 C-11.04698433 9.88583152 -11.04547623 8.70874342 -11.04392242 7.49598598 C-9.95712719 1.03473116 -5.9966593 0.00331439 0 0 Z " fill="#FBFCFC" transform="translate(348.5405578613281,98.49663543701172)"/>
<path d="M0 0 C213.18 0 426.36 0 646 0 C646 88.11 646 176.22 646 267 C432.82 267 219.64 267 0 267 C0 178.89 0 90.78 0 0 Z M10 10 C10 91.84 10 173.68 10 258 C216.58 258 423.16 258 636 258 C636 176.16 636 94.32 636 10 C429.42 10 222.84 10 10 10 Z " fill="#303F50" transform="translate(114,79)"/>
<path d="M0 0 C7.26494703 6.24871932 10.75029807 18.7795101 12 28 C13.61350879 51.80324848 7.97260411 71.49862802 -7.75 89.625 C-21.17432257 103.99102878 -40.00693749 112.09209689 -59.578125 113.203125 C-77.70486342 113.43453017 -77.70486342 113.43453017 -84.125 108.30078125 C-91.46585863 100.51641241 -92.58143005 93.08807099 -92.3515625 82.56640625 C-91.89065971 77.89080354 -90.73717097 74.7704077 -88 71 C-87.319375 69.989375 -86.63875 68.97875 -85.9375 67.9375 C-77.96272449 59.01738636 -65.91302411 55.29747405 -54.921875 51.640625 C-38.77464983 46.44865649 -38.77464983 46.44865649 -25 37 C-25.86274536 37.27880005 -25.86274536 37.27880005 -26.74291992 37.56323242 C-40.34802948 41.89619743 -53.80322165 45.12771153 -67.9362793 47.2253418 C-80.4269881 49.14530872 -94.42885132 52.61100971 -102.5 63.125 C-103.37364318 64.38975089 -104.20992518 65.68142918 -105 67 C-105.56074219 67.84111328 -105.56074219 67.84111328 -106.1328125 68.69921875 C-107.49276542 72.30738214 -107.38085982 75.86221138 -107.375 79.6875 C-107.37701416 80.49316406 -107.37902832 81.29882812 -107.38110352 82.12890625 C-107.28866726 87.53724791 -106.56790746 91.73324794 -103.77734375 96.46875 C-103.39255859 97.22671875 -103.39255859 97.22671875 -103 98 C-103.33 98.66 -103.66 99.32 -104 100 C-111.34036439 94.45727587 -117.27053988 86.90936983 -120 78 C-121.06185177 69.26613021 -121.32322489 59.70926911 -116.59765625 52.03515625 C-104.36050217 36.44699666 -84.33809561 33.39526288 -65.84057617 31.13720703 C-35.78896652 27.52354912 -35.78896652 27.52354912 -10.359375 12.32421875 C-9 11 -9 11 -7 11 C-6.773125 10.484375 -6.54625 9.96875 -6.3125 9.4375 C-4.5024447 6.07596873 -2.26003596 3.07088856 0 0 Z " fill="#2F3F51" transform="translate(291,175)"/>
<path d="M0 0 C0.64066406 0.62003906 1.28132813 1.24007812 1.94140625 1.87890625 C2.60011719 2.49636719 3.25882812 3.11382812 3.9375 3.75 C5.74914095 5.7062108 6.49704486 6.74291636 6.5234375 9.4296875 C6.45511719 10.19667969 6.38679688 10.96367187 6.31640625 11.75390625 C6.26097656 12.51316406 6.20554687 13.27242187 6.1484375 14.0546875 C4.9319628 18.55933017 2.31015607 20.90808925 -1.5078125 23.43359375 C-2.72304886 24.08039408 -3.94924818 24.70686454 -5.18359375 25.31640625 C-5.85624268 25.6530127 -6.5288916 25.98961914 -7.22192383 26.33642578 C-16.6412182 30.77625214 -26.82691979 33.16133591 -36.88745117 35.69873047 C-39.51267391 36.44612659 -41.98159604 37.38383559 -44.49609375 38.44140625 C-39.21488217 37.96147147 -33.93566381 37.4642155 -28.6574707 36.95214844 C-26.86883787 36.78093217 -25.07977657 36.61412345 -23.2902832 36.45214844 C0.26052404 34.92825401 0.26052404 34.92825401 19.94140625 23.75390625 C21.88479083 19.63393094 22.30343248 15.95206602 22.50390625 11.44140625 C23.63630375 12.18018964 24.75956095 12.9329927 25.87890625 13.69140625 C26.50539063 14.1090625 27.131875 14.52671875 27.77734375 14.95703125 C30.32644864 17.14856939 31.32940258 19.20359357 31.796875 22.51953125 C31.55366151 27.52792766 30.33678587 30.2045214 26.69140625 33.69140625 C21.46078331 37.87424144 15.78901504 40.26164425 9.50390625 42.44140625 C8.86388672 42.68221924 8.22386719 42.92303223 7.56445312 43.17114258 C1.15934892 45.48450014 -5.27158571 46.53656762 -11.99609375 47.50390625 C-13.1459375 47.67672119 -14.29578125 47.84953613 -15.48046875 48.02758789 C-21.13563198 48.86405437 -26.7831767 49.61210971 -32.47167969 50.17626953 C-47.25753194 51.65628127 -60.87275269 55.42539739 -73.49609375 63.44140625 C-74.11742187 63.828125 -74.73875 64.21484375 -75.37890625 64.61328125 C-82.87987749 70.03283115 -88.39574716 80.93967328 -90.18359375 89.87890625 C-90.28671875 90.72453125 -90.38984375 91.57015625 -90.49609375 92.44140625 C-91.15609375 92.11140625 -91.81609375 91.78140625 -92.49609375 91.44140625 C-98.11724948 73.5022858 -95.12707919 52.55944849 -86.75195312 36.18847656 C-83.62716109 30.37681542 -79.95546784 25.314174 -75.49609375 20.44140625 C-74.89410156 19.74789062 -74.29210937 19.054375 -73.671875 18.33984375 C-59.20977401 2.63466909 -20.72855976 -12.9431852 0 0 Z " fill="#304051" transform="translate(250.49609375,143.55859375)"/>
<path d="M0 0 C12.87 0 25.74 0 39 0 C48.14062038 17.13866322 48.14062038 17.13866322 52 25.375 C54.99254623 31.74386518 58.02560815 38.08527045 61.20046997 44.36529541 C62.7086429 47.35105398 64.20202039 50.34411885 65.69506836 53.33746338 C66.43673808 54.81428059 67.18539085 56.28761259 67.94116211 57.75726318 C69.00642531 59.8308271 70.04632984 61.91545597 71.08203125 64.00390625 C71.40742386 64.62178513 71.73281647 65.239664 72.06806946 65.87626648 C73.59855644 69.02341219 74.05577486 70.71788426 73.36987305 74.18725586 C72.12324208 76.74694849 70.83473454 78.83167736 69 81 C68.66379639 80.26700684 68.32759277 79.53401367 67.98120117 78.77880859 C61.85547399 65.44591538 55.67544093 52.16334381 49.05029297 39.06933594 C43.86026269 28.79616824 38.9322575 18.39876339 34 8 C26.74 8 19.48 8 12 8 C12.81082031 9.61003906 13.62164062 11.22007813 14.45703125 12.87890625 C20.26472697 24.43685699 26.01003511 36.01685984 31.56298828 47.69995117 C35.72432589 56.44789948 39.95082627 65.16337157 44.1875 73.875 C44.90909936 75.35904897 45.63069767 76.84309845 46.35229492 78.32714844 C47.44850699 80.58154446 48.54475482 82.83592306 49.64112854 85.09024048 C53.78862306 93.61924777 57.9258315 102.1532381 62.0625 110.6875 C62.76651727 112.13981261 63.47053737 113.59212385 64.17456055 115.04443359 C65.7831736 118.36289116 67.39163716 121.68142116 69 125 C71.11656137 122.31112306 72.77933613 119.67040724 74.27734375 116.59643555 C74.70208984 115.72999924 75.12683594 114.86356293 75.56445312 113.97087097 C76.01755859 113.03560074 76.47066406 112.10033051 76.9375 111.13671875 C77.65776367 109.66221001 77.65776367 109.66221001 78.39257812 108.15791321 C79.93232908 105.00301418 81.46613839 101.84526578 83 98.6875 C84.00093599 96.63588906 85.00223472 94.58445505 86.00390625 92.53320312 C91.37493328 81.52191326 96.69068159 70.48518759 101.96670532 59.42810059 C106.29665763 50.36102222 110.68929009 41.32509281 115.10009766 32.29711914 C116.39724451 29.64196735 117.69285318 26.98606886 118.98828125 24.33007812 C119.83324553 22.59891547 120.67829437 20.86779409 121.5234375 19.13671875 C122.08917984 17.97712898 122.08917984 17.97712898 122.66635132 16.79411316 C125.41093344 11.17851328 128.2044127 5.5911746 131 0 C138.92 0 146.84 0 155 0 C153.68 2.97 152.36 5.94 151 9 C150.60296875 9.89847656 150.2059375 10.79695313 149.796875 11.72265625 C147.16582589 17.60324735 144.34240103 23.37582717 141.44624329 29.12901306 C136.66689086 38.62891165 131.99969513 48.18409098 127.31958008 57.7331543 C125.7019542 61.03301431 124.08247527 64.33196038 122.46289062 67.63085938 C115.97440927 80.85868007 109.56937606 94.12368553 103.22976685 107.4234314 C100.44162097 113.26506645 97.63197323 119.09634543 94.81640625 124.92480469 C94.16999815 126.2638887 93.52454096 127.60343203 92.87988281 128.94335938 C91.91931001 130.93977024 90.95607928 132.9348774 89.9921875 134.9296875 C89.16243408 136.65034424 89.16243408 136.65034424 88.31591797 138.40576172 C87 141 87 141 86 142 C83.32941149 142.14115161 80.67567762 142.04247107 78 142 C79.30434905 137.81762281 80.8863888 134.00102518 82.87109375 130.09765625 C83.43932861 128.97286865 84.00756348 127.84808105 84.59301758 126.68920898 C84.89333893 126.09888885 85.19366028 125.50856873 85.50308228 124.90036011 C87.10825689 121.74322137 88.6985923 118.57862802 90.2890625 115.4140625 C90.60935928 114.77720016 90.92965607 114.14033783 91.25965881 113.48417664 C94.01189436 108.0006537 96.68172565 102.48033605 99.3125 96.9375 C103.8865226 87.30820448 108.52499617 77.71166614 113.1875 68.125 C113.54611115 67.38757568 113.90472229 66.65015137 114.27420044 65.89038086 C117.33320259 59.60012291 117.33320259 59.60012291 118.66377258 56.86447144 C121.27149744 51.50179438 123.87359804 46.1364135 126.47265625 40.76953125 C126.8344548 40.02257996 127.19625336 39.27562866 127.5690155 38.50604248 C128.96533095 35.62315119 130.36162332 32.74024954 131.75668335 29.85675049 C135.45500503 22.21279101 139.17427099 14.58131224 143 7 C139.65777424 6.75011614 139.65777424 6.75011614 136 8 C133.75263543 10.81948079 132.51388903 14.06769577 131.125 17.375 C130.17585167 19.49078519 129.22384097 21.60528779 128.26953125 23.71875 C127.49343506 25.46478516 127.49343506 25.46478516 126.70166016 27.24609375 C123.91485067 33.45129937 120.88990784 39.54421367 117.89932251 45.6529541 C116.05865829 49.41625523 114.22930257 53.18504968 112.3984375 56.953125 C111.65855059 58.47462005 110.91864183 59.99610447 110.17871094 61.51757812 C107.089224 67.87228996 104.006547 74.2303015 100.92456055 80.58865356 C99.94136646 82.61702334 98.9580063 84.64531254 97.97460938 86.67358398 C94.88924887 93.03753531 91.80501764 99.40203127 88.7228241 105.76751709 C87.26941145 108.76897798 85.81553052 111.77021193 84.36160278 114.77142334 C83.67376541 116.19159732 82.98615561 117.61188154 82.29879761 119.0322876 C78.58186561 126.71315596 74.84442132 134.38183099 71 142 C69.68 142 68.36 142 67 142 C66.72961914 141.43418213 66.45923828 140.86836426 66.18066406 140.28540039 C64.87066009 137.54432963 63.56037356 134.8033941 62.25 132.0625 C61.50073242 130.49520142 61.50073242 130.49520142 60.73632812 128.89624023 C58.25093098 123.69932445 55.76304747 118.50364889 53.265625 113.3125 C48.71443446 103.85100726 44.17668934 94.38374716 39.68359375 84.89453125 C38.10176052 81.55459367 36.51977313 78.21472921 34.9375 74.875 C34.33864487 73.61097351 34.33864487 73.61097351 33.72769165 72.32141113 C26.69602108 57.48874678 19.54355587 42.71720926 12.31811523 27.97802734 C0 2.83365295 0 2.83365295 0 0 Z " fill="#344252" transform="translate(353,114)"/>
<path d="M0 0 C6.93 0 13.86 0 21 0 C21 42.57 21 85.14 21 129 C18.69 129 16.38 129 14 129 C14 89.07 14 49.14 14 8 C12.02 8 10.04 8 8 8 C8 49.91 8 91.82 8 135 C29.78 135 51.56 135 74 135 C74 128.73 74 122.46 74 116 C63.11 116 52.22 116 41 116 C41 113.36 41 110.72 41 108 C54.53 108 68.06 108 82 108 C82 119.55 82 131.1 82 143 C54.94 143 27.88 143 0 143 C0 95.81 0 48.62 0 0 Z " fill="#3C4B5A" transform="translate(639,113)"/>
<path d="M0 0 C2.64 0 5.28 0 8 0 C8 44.22 8 88.44 8 134 C33.41 134 58.82 134 85 134 C85 127.4 85 120.8 85 114 C66.19 114 47.38 114 28 114 C28 107.73 28 101.46 28 95 C30.31 95 32.62 95 35 95 C35 98.96 35 102.92 35 107 C53.81 107 72.62 107 92 107 C92 118.22 92 129.44 92 141 C61.64 141 31.28 141 0 141 C0 94.47 0 47.94 0 0 Z " fill="#3C4C5B" transform="translate(524,114)"/>
<path d="M0 0 C16.17 0 32.34 0 49 0 C49 2.64 49 5.28 49 8 C35.14 8 21.28 8 7 8 C7 18.23 7 28.46 7 39 C22.84 39 38.68 39 55 39 C55 50.55 55 62.1 55 74 C34.54 74 14.08 74 -7 74 C-7 85.22 -7 96.44 -7 108 C11.81 108 30.62 108 50 108 C50 110.31 50 112.62 50 115 C28.88 115 7.76 115 -14 115 C-14 99.16 -14 83.32 -14 67 C6.46 67 26.92 67 48 67 C48 60.07 48 53.14 48 46 C32.16 46 16.32 46 0 46 C0 30.82 0 15.64 0 0 Z " fill="#2F3D4D" transform="translate(552,127)"/>
<path d="M0 0 C0.65850598 -0.00581376 1.31701196 -0.01162753 1.99547267 -0.01761746 C4.21185855 -0.0322672 6.42714555 -0.01831037 8.64352417 -0.00457001 C10.24455394 -0.00917699 11.84557949 -0.01552855 13.44659615 -0.02347898 C17.85376147 -0.04022339 22.26058166 -0.03190287 26.66774845 -0.01953411 C31.41765276 -0.01050677 36.16749652 -0.02444181 40.91738892 -0.0354538 C50.22543882 -0.05326842 59.53335992 -0.04938595 68.84141493 -0.03780323 C76.40422596 -0.02878074 83.96700081 -0.02753977 91.52981567 -0.0318985 C92.60495898 -0.03251143 93.68010229 -0.03312436 94.7878257 -0.03375587 C96.97175265 -0.03503473 99.15567959 -0.03633158 101.33960652 -0.03764623 C121.83281931 -0.04906066 142.32596059 -0.03592481 162.81916165 -0.01444477 C180.41478576 0.00342698 198.01030432 0.00032312 215.60592651 -0.01811981 C236.02429633 -0.03951131 256.44260344 -0.04796194 276.86098289 -0.03567076 C279.03701145 -0.03439652 281.21304002 -0.03313904 283.3890686 -0.0318985 C284.99516658 -0.03097285 284.99516658 -0.03097285 286.63371098 -0.03002849 C294.19007756 -0.02657042 301.74640446 -0.03241376 309.30276489 -0.04181671 C318.50768346 -0.05301897 327.71246554 -0.05003407 336.91736841 -0.02869374 C341.61658652 -0.01815938 346.31557682 -0.01410194 351.0147934 -0.02729034 C355.31291871 -0.03917091 359.61060411 -0.03272386 363.90868926 -0.01138014 C365.46717255 -0.00689558 367.02569267 -0.00922167 368.58415246 -0.01888329 C370.6962646 -0.03097729 372.80685288 -0.01864653 374.91888428 0 C376.09384901 0.00064941 377.26881374 0.00129882 378.47938347 0.00196791 C382.09472253 0.61025087 383.27758887 1.60496846 385.45944214 4.50336456 C385.9628067 7.49598598 385.9628067 7.49598598 385.96737671 11.06291962 C385.97673665 12.04893232 385.97673665 12.04893232 385.98628569 13.05486447 C386.00223236 15.256081 385.98960615 17.45619268 385.97702026 19.6574173 C385.98244074 21.23608801 385.98956299 22.81475367 385.9982605 24.39340973 C386.0165073 28.68068792 386.00942046 32.96758139 385.99674416 37.25486636 C385.98662169 41.74087233 385.9960079 46.22684522 386.00228882 50.71285248 C386.00956818 58.24765693 385.99997077 65.78230461 385.98092651 73.31708527 C385.95916507 82.02748006 385.96620261 90.73750024 385.98823214 99.44788593 C386.00638736 106.92572245 386.00894363 114.40344621 385.99847746 121.88129765 C385.99224217 126.34773813 385.99140766 130.81400258 386.00462341 135.28043175 C386.01618284 139.48058847 386.00815478 143.68026265 385.98504639 147.88036728 C385.97975941 149.42147966 385.98127295 150.96263268 385.99009705 152.50372887 C386.00103774 154.60864178 385.98730982 156.71201117 385.96737671 158.81682587 C385.96511456 160.58302355 385.96511456 160.58302355 385.9628067 162.384902 C385.3358882 166.26881045 384.2501377 167.75129336 381.45944214 170.50336456 C378.47938347 171.13011038 378.47938347 171.13011038 374.91888428 171.13257027 C374.2603783 171.13983747 373.60187232 171.14710467 372.92341161 171.1545921 C370.70681844 171.17290598 368.49194192 171.15545981 366.27536011 171.13828278 C364.67432709 171.14404152 363.07330067 171.15198097 361.47228813 171.161919 C357.06505838 171.18284981 352.65836787 171.17244908 348.25113583 171.15698791 C343.50121793 171.1457037 338.75139464 171.16312251 334.00149536 171.17688751 C324.69342227 171.19915585 315.38555042 171.19430274 306.07746935 171.17982431 C298.51465226 171.16854619 290.95189169 171.16699497 283.3890686 171.17244339 C282.31392529 171.17320956 281.23878198 171.17397572 280.13105857 171.1747651 C277.94713162 171.17636368 275.76320468 171.17798475 273.57927775 171.17962806 C253.08604937 171.1938961 232.59293269 171.17747629 212.09972262 171.15062623 C194.50407837 171.12828651 176.90859904 171.13216634 159.31295776 171.15522003 C138.894578 171.18195941 118.47629621 171.1925227 98.05790138 171.17715871 C95.88187283 171.17556592 93.70584426 171.17399406 91.52981567 171.17244339 C90.45908369 171.17167201 89.38835171 171.17090063 88.2851733 171.17010588 C80.72879813 171.16578329 73.17248495 171.17308746 65.61611938 171.18484116 C56.41117228 171.19884402 47.20643844 171.19511291 38.00151587 171.16843744 C33.30225476 171.15526938 28.6033496 171.15019755 23.90409088 171.1666832 C19.60587556 171.18153421 15.30834758 171.17347551 11.01019502 171.14679544 C9.45171423 171.14118975 7.89317589 171.14409747 6.33473182 171.15617438 C4.22231902 171.17129404 2.11228663 171.15588124 0 171.13257027 C-1.7624471 171.13135262 -1.7624471 171.13135262 -3.56049919 171.13011038 C-6.54055786 170.50336456 -6.54055786 170.50336456 -8.91788244 168.15894312 C-10.95454299 164.82585998 -11.04350478 162.71098448 -11.04849243 158.81682587 C-11.05785238 157.82847318 -11.05785238 157.82847318 -11.06740141 156.82015377 C-11.08331369 154.61970729 -11.07073548 152.42037133 -11.05813599 150.2199173 C-11.06355789 148.63947658 -11.07068093 147.05904091 -11.07937622 145.47861481 C-11.09760309 141.19146277 -11.09054518 136.90469599 -11.07785988 132.61753726 C-11.06773066 128.13106929 -11.07712517 123.64463424 -11.08340454 119.15816498 C-11.09068043 111.62514067 -11.08109403 104.09227326 -11.06204224 96.55927277 C-11.04026567 87.84826927 -11.04733071 79.13764015 -11.06934786 70.4266457 C-11.08749414 62.9479554 -11.09006421 55.46937785 -11.07959318 47.99067265 C-11.073355 43.52372001 -11.07253164 39.05694341 -11.08573914 34.59000206 C-11.09728613 30.39147646 -11.08929335 26.19343413 -11.06616211 21.99496078 C-11.06086914 20.45342754 -11.06239888 18.91185367 -11.07121277 17.37033653 C-11.08212945 15.2673136 -11.0684549 13.16584333 -11.04849243 11.06291962 C-11.04698433 9.88583152 -11.04547623 8.70874342 -11.04392242 7.49598598 C-9.95712719 1.03473116 -5.9966593 0.00331439 0 0 Z M-7.41627944 3.84823835 C-9.1935333 6.46465381 -8.91849337 8.79035482 -8.92150879 11.91815948 C-8.92618876 12.57197444 -8.93086873 13.22578939 -8.93569052 13.89941692 C-8.9476749 16.09442757 -8.9381704 18.28881782 -8.92874146 20.48383331 C-8.93280565 22.05574661 -8.93814667 23.62765706 -8.94467163 25.19956207 C-8.95836924 29.47224787 -8.95303656 33.74471679 -8.94353437 38.01740646 C-8.9359504 42.48433018 -8.94297987 46.95123506 -8.94769287 51.41815948 C-8.95315411 58.92022798 -8.94594916 66.42220794 -8.93167114 73.924263 C-8.9153439 82.60337895 -8.92063215 91.28228349 -8.93715036 99.96139431 C-8.95075474 107.40689373 -8.95269003 114.85232943 -8.94483435 122.29783726 C-8.94015206 126.74743427 -8.93954821 131.19693185 -8.94944382 135.64652252 C-8.958096 139.82934615 -8.95212378 144.01189665 -8.93476105 148.1946907 C-8.93078682 149.73180818 -8.93194621 151.26894855 -8.93854904 152.80605698 C-8.94671811 154.90054048 -8.93650058 156.99414266 -8.92150879 159.08856964 C-8.92037771 160.26180283 -8.91924664 161.43503601 -8.91808128 162.64382172 C-8.76702887 165.43631271 -8.76702887 165.43631271 -7.41627944 167.15849078 C-4.66255147 169.13288644 -2.51892831 168.87948593 0.84851074 168.88088799 C1.50278573 168.88524831 2.15706071 168.88960863 2.83116221 168.89410108 C5.03900562 168.90511081 7.24623147 168.89460932 9.45407104 168.88431549 C11.04669834 168.88776981 12.63932325 168.89253285 14.23194313 168.89849722 C18.62044532 168.91106797 23.00875283 168.90480938 27.3972559 168.89553857 C32.12533477 168.88877318 36.85337929 168.8992168 41.58145142 168.90747833 C50.84851066 168.92084477 60.11549716 168.917925 69.3825593 168.90924041 C76.91154994 168.90247569 84.44052014 168.90154188 91.96951294 168.90481186 C93.03952974 168.90527156 94.10954654 168.90573126 95.21198809 168.90620489 C97.3854483 168.90716403 99.55890851 168.90813666 101.73236871 168.90912266 C122.13110989 168.91768508 142.52981068 168.90782907 162.92854524 168.89172156 C180.4460259 168.87831761 197.96344693 168.88064547 215.48092651 168.89447784 C235.80478333 168.91051863 256.12860471 168.91686103 276.45246696 168.90764105 C278.61810175 168.90668537 280.78373654 168.90574226 282.94937134 168.90481186 C284.0150108 168.90434903 285.08065027 168.90388621 286.17858183 168.90340935 C293.70183703 168.90081495 301.22506981 168.90520014 308.74832153 168.91225052 C317.91191536 168.92064906 327.07543206 168.91842016 336.23901701 168.90240829 C340.91781836 168.89450332 345.59649094 168.89147167 350.27529144 168.90135574 C354.55359699 168.91025732 358.83165369 168.90544529 363.10993648 168.88942309 C364.6623773 168.88605593 366.21483891 168.88781241 367.76726651 168.89505045 C369.86860613 168.90410055 371.96908005 168.89489176 374.07037354 168.88088799 C375.82509004 168.8801574 375.82509004 168.8801574 377.61525536 168.87941206 C380.45220127 168.73156171 380.45220127 168.73156171 382.33516371 167.15849078 C384.11241757 164.54207532 383.83737765 162.21637431 383.84039307 159.08856964 C383.84507304 158.43475469 383.84975301 157.78093973 383.8545748 157.1073122 C383.86655918 154.91230156 383.85705468 152.7179113 383.84762573 150.52289581 C383.85168993 148.95098251 383.85703095 147.37907207 383.86355591 145.80716705 C383.87725352 141.53448126 383.87192084 137.26201234 383.86241865 132.98932266 C383.85483468 128.52239895 383.86186414 124.05549407 383.86657715 119.58856964 C383.87203839 112.08650115 383.86483344 104.58452119 383.85055542 97.08246613 C383.83422818 88.40335018 383.83951643 79.72444564 383.85603464 71.04533482 C383.86963902 63.5998354 383.87157431 56.1543997 383.86371863 48.70889187 C383.85903633 44.25929485 383.85843249 39.80979727 383.86832809 35.3602066 C383.87698028 31.17738297 383.87100806 26.99483248 383.85364532 22.81203842 C383.8496711 21.27492095 383.85083049 19.73778058 383.85743332 18.20067215 C383.86560239 16.10618864 383.85538486 14.01258647 383.84039307 11.91815948 C383.83926199 10.7449263 383.83813091 9.57169312 383.83696556 8.36290741 C383.68591315 5.57041641 383.68591315 5.57041641 382.33516371 3.84823835 C379.58143575 1.87384268 377.43781259 2.12724319 374.07037354 2.12584114 C373.08896106 2.11930066 373.08896106 2.11930066 372.08772206 2.11262804 C369.87987866 2.10161831 367.67265281 2.1121198 365.46481323 2.12241364 C363.87218593 2.11895932 362.27956102 2.11419628 360.68694115 2.1082319 C356.29843895 2.09566115 351.91013145 2.10191975 347.52162838 2.11119056 C342.79354951 2.11795595 338.06550499 2.10751233 333.33743286 2.09925079 C324.07037362 2.08588436 314.80338711 2.08880413 305.53632498 2.09748872 C298.00733434 2.10425343 290.47836414 2.10518725 282.94937134 2.10191727 C281.87935454 2.10145757 280.80933774 2.10099787 279.70689619 2.10052424 C277.53343597 2.0995651 275.35997577 2.09859246 273.18651557 2.09760647 C252.78777439 2.08904405 232.3890736 2.09890005 211.99033904 2.11500756 C194.47285838 2.12841151 176.95543735 2.12608366 159.43795776 2.11225128 C139.11410095 2.0962105 118.79027957 2.0898681 98.46641731 2.09908807 C96.30078253 2.10004376 94.13514774 2.10098687 91.96951294 2.10191727 C90.37105374 2.10261151 90.37105374 2.10261151 88.74030244 2.10331977 C81.21704725 2.10591417 73.69381447 2.10152899 66.17056274 2.09447861 C57.00696892 2.08608007 47.84345222 2.08830897 38.67986727 2.10432084 C34.00106592 2.1122258 29.32239334 2.11525745 24.64359283 2.10537338 C20.36528729 2.0964718 16.08723058 2.10128384 11.8089478 2.11730604 C10.25650697 2.1206732 8.70404537 2.11891671 7.15161777 2.11167867 C5.05027814 2.10262858 2.94980422 2.11183737 0.84851074 2.12584114 C-0.90620576 2.12657173 -0.90620576 2.12657173 -2.69637108 2.12731707 C-5.53331699 2.27516742 -5.53331699 2.27516742 -7.41627944 3.84823835 Z " fill="#7081BE" transform="translate(348.5405578613281,98.49663543701172)"/>
<path d="M0 0 C25.74 0 51.48 0 78 0 C78 11.55 78 23.1 78 35 C61.83 35 45.66 35 29 35 C29 32.69 29 30.38 29 28 C42.53 28 56.06 28 70 28 C70 21.07 70 14.14 70 7 C49.21 7 28.42 7 7 7 C7 26.47 7 45.94 7 66 C22.51 66 38.02 66 54 66 C54 68.31 54 70.62 54 73 C36.18 73 18.36 73 0 73 C0 48.91 0 24.82 0 0 Z " fill="#324151" transform="translate(538,114)"/>
<path d="M0 0 C2.97 0 5.94 0 9 0 C3.12064267 12.52629743 -2.88974804 24.98702223 -8.93563843 37.4335022 C-13.08892659 45.98436153 -17.22705629 54.54144965 -21.3125 63.125 C-29.4168087 80.14324348 -37.730755 97.06148896 -46 114 C-48.86255029 110.33746419 -50.77279522 106.46466204 -52.6875 102.25 C-55.55476179 95.97517869 -58.58823412 89.79298596 -61.68452454 83.62864685 C-66.15165292 74.72440503 -70.51116729 65.76769312 -74.875 56.8125 C-75.3124353 55.91523193 -75.74987061 55.01796387 -76.20056152 54.09350586 C-81.24567814 43.74281993 -86.287969 33.39084371 -91.25 23 C-91.64944824 22.16573486 -92.04889648 21.33146973 -92.46044922 20.47192383 C-95 15.12429503 -95 15.12429503 -95 14 C-92.03 14 -89.06 14 -86 14 C-77.0549631 32.38010488 -68.1178575 50.76295141 -59.32666016 69.21728516 C-56.82724575 74.45989197 -54.3191317 79.69834125 -51.8125 84.9375 C-50.88147742 86.8840988 -49.95048457 88.83071182 -49.01953125 90.77734375 C-48.62870361 91.59452881 -48.23787598 92.41171387 -47.83520508 93.25366211 C-47.42177856 94.11809937 -47.42177856 94.11809937 -47 95 C-44.48427885 91.88104779 -42.7574857 88.68526168 -41.03125 85.07421875 C-40.46623779 83.89778809 -39.90122559 82.72135742 -39.3190918 81.50927734 C-38.71265955 80.23538408 -38.1062974 78.96145745 -37.5 77.6875 C-36.86604038 76.36390382 -36.23167677 75.04050107 -35.59692383 73.71728516 C-34.01327383 70.41337902 -32.43450789 67.10717126 -30.85797119 63.79986572 C-28.80369099 59.49036378 -26.74509196 55.1829214 -24.6875 50.875 C-24.26799072 49.99569824 -23.84848145 49.11639648 -23.41625977 48.21044922 C-18.96328421 38.89177933 -14.45080195 29.60205372 -9.9375 20.3125 C-9.55765961 19.53058289 -9.17781921 18.74866577 -8.78646851 17.9430542 C-7.70047719 15.70794315 -6.61403855 13.47305034 -5.52734375 11.23828125 C-5.20074768 10.56639267 -4.87415161 9.89450409 -4.53765869 9.20225525 C-3.04102629 6.12642325 -1.52978917 3.05957833 0 0 Z " fill="#344353" transform="translate(469,113)"/>
<path d="M0 0 C2.31 0 4.62 0 7 0 C7 39.93 7 79.86 7 121 C17.89 121 28.78 121 40 121 C40 123.31 40 125.62 40 128 C26.8 128 13.6 128 0 128 C0 85.76 0 43.52 0 0 Z " fill="#2E3E4E" transform="translate(667,114)"/>
<path d="M0 0 C16.17 0 32.34 0 49 0 C49 2.64 49 5.28 49 8 C35.14 8 21.28 8 7 8 C7 18.23 7 28.46 7 39 C22.84 39 38.68 39 55 39 C55 39.33 55 39.66 55 40 C51.37 40.33 47.74 40.66 44 41 C44 41.99 44 42.98 44 44 C45.32 44 46.64 44 48 44 C48 44.66 48 45.32 48 46 C32.16 46 16.32 46 0 46 C0 30.82 0 15.64 0 0 Z " fill="#324152" transform="translate(552,127)"/>
<path d="M0 0 C2.31 0 4.62 0 7 0 C7 3.96 7 7.92 7 12 C25.81 12 44.62 12 64 12 C64 21.24 64 30.48 64 40 C61.03 39.505 61.03 39.505 58 39 C58 32.4 58 25.8 58 19 C38.86 19 19.72 19 0 19 C0 12.73 0 6.46 0 0 Z " fill="#2E3D4D" transform="translate(552,209)"/>
<path d="M0 0 C0.7528125 -0.0103125 1.505625 -0.020625 2.28125 -0.03125 C5.3704305 0.70841294 6.49993436 2.06074468 8.5 4.5 C9.01757812 7.09375 9.01757812 7.09375 9.03125 10 C9.03640625 11.051875 9.0415625 12.10375 9.046875 13.1875 C9.03140625 14.280625 9.0159375 15.37375 9 16.5 C9.01546875 17.593125 9.0309375 18.68625 9.046875 19.8125 C9.04171875 20.864375 9.0365625 21.91625 9.03125 23 C9.02673828 23.9590625 9.02222656 24.918125 9.01757812 25.90625 C8.35670529 29.21809575 7.10335061 30.41593235 4.5 32.5 C2.24609375 32.99609375 2.24609375 32.99609375 -0.0625 32.9375 C-0.82691406 32.93621094 -1.59132813 32.93492187 -2.37890625 32.93359375 C-4.9797944 32.40192048 -5.85584927 31.54394422 -7.5 29.5 C-9.49404046 25.51191908 -8.77258758 20.51004473 -8.8125 16.125 C-8.84150391 15.07054687 -8.87050781 14.01609375 -8.90039062 12.9296875 C-8.90876953 11.91390625 -8.91714844 10.898125 -8.92578125 9.8515625 C-8.94036377 8.92166504 -8.95494629 7.99176758 -8.9699707 7.03369141 C-8.0572025 2.11280391 -4.83670571 -0.06625624 0 0 Z " fill="#F1F4F5" transform="translate(574.5,280.5)"/>
<path d="M0 0 C2.46800047 1.15173355 4.04783565 2.04783565 6 4 C6.25726891 6.74652576 6.25726891 6.74652576 6.26742554 10.31904602 C6.27195665 10.97467897 6.27648776 11.63031192 6.28115618 12.30581254 C6.29386335 14.51294638 6.29217579 16.71983547 6.29052734 18.92700195 C6.29650876 20.50537434 6.3033134 22.0837438 6.31088257 23.66210938 C6.32859143 27.95765977 6.33324006 32.25313055 6.33451414 36.54871392 C6.33641057 40.13219492 6.34376534 43.71565726 6.35085833 47.2991311 C6.36715922 55.7537109 6.37202582 64.20824809 6.37060547 72.6628418 C6.36940427 81.38793928 6.39049773 90.1127893 6.4220928 98.83782417 C6.44823733 106.32409211 6.4589735 113.81027916 6.45769465 121.29659241 C6.45718438 125.76979553 6.46290279 130.24277895 6.48405075 134.71593666 C6.50340202 138.9242347 6.50357915 143.13210283 6.48901749 147.34041595 C6.48692424 148.88476628 6.49166097 150.42914328 6.5037384 151.9734478 C6.51916579 154.08280594 6.5099017 156.19067716 6.49447632 158.30000305 C6.49556585 159.48006581 6.49665539 160.66012857 6.49777794 161.87595081 C5.90338796 165.60633619 4.56465705 167.28926621 2 170 C1.01 169.67 0.02 169.34 -1 169 C-0.35033736 168.47478539 0.29932528 167.94957079 0.96867466 167.40844059 C3.62158525 164.26301754 3.50047685 162.54621497 3.50120544 158.46495056 C3.50673984 157.81028118 3.51227424 157.1556118 3.51797634 156.48110396 C3.53158195 154.28901757 3.51661579 152.09807001 3.50170898 149.90600586 C3.50549219 148.33394385 3.51099225 146.76188517 3.51808167 145.18983459 C3.53205232 140.92126957 3.52085589 136.65310688 3.50437045 132.38456416 C3.49053034 127.92031832 3.49697875 123.45609609 3.50050354 118.99183655 C3.50320621 111.49571235 3.48972427 103.99974822 3.46655273 96.50366211 C3.43993291 87.83190174 3.43819874 79.16040888 3.4499411 70.48862165 C3.46071194 62.15171246 3.45453791 53.81490022 3.44038582 45.47799873 C3.43462095 41.92740149 3.43471259 38.37687508 3.43945122 34.82627678 C3.44421589 30.64752812 3.43414076 26.46907323 3.41249657 22.29038048 C3.40692188 20.75488018 3.40646965 19.21935168 3.41144943 17.68384933 C3.41738499 15.59159314 3.40493212 13.50024045 3.38768005 11.4080658 C3.38403521 9.65016425 3.38403521 9.65016425 3.38031673 7.85674953 C2.95819513 4.68598269 2.38612838 3.97985079 0 2 C0 1.34 0 0.68 0 0 Z " fill="#697DDE" transform="translate(728,99)"/>
<path d="M0 0 C16.17 0 32.34 0 49 0 C49 2.64 49 5.28 49 8 C34.81 8 20.62 8 6 8 C7 3 7 3 8 1 C5.36 1 2.72 1 0 1 C0 0.67 0 0.34 0 0 Z " fill="#435160" transform="translate(552,127)"/>
<path d="M0 0 C0.66 0.33 1.32 0.66 2 1 C1.67 1.66 1.34 2.32 1 3 C0.34 3 -0.32 3 -1 3 C-1.07006174 24.03579892 -1.12297428 45.07157861 -1.15543652 66.10747051 C-1.1709095 75.87466518 -1.19200729 85.64178739 -1.22631836 95.40893555 C-1.25620748 103.92136378 -1.27557186 112.43373954 -1.28226548 120.94621879 C-1.28617857 125.45408201 -1.29538383 129.96179508 -1.31719017 134.46961021 C-1.33754762 138.71227201 -1.34383531 142.95472175 -1.33932304 147.19742775 C-1.34014858 148.75468218 -1.34611872 150.31194368 -1.35761642 151.86915588 C-1.37254938 153.99589133 -1.36895128 156.12182686 -1.36076355 158.24858093 C-1.36352893 159.43861567 -1.36629431 160.62865042 -1.36914349 161.85474682 C-0.9652241 165.29630486 0.00943446 167.20027 2 170 C-1.16115776 168.63016497 -1.9927092 168.0109362 -4 165 C-4.25726891 162.12763309 -4.25726891 162.12763309 -4.26742554 158.55397034 C-4.27195665 157.8967774 -4.27648776 157.23958445 -4.28115618 156.56247658 C-4.29383591 154.35611447 -4.29217756 152.14999807 -4.29052734 149.94360352 C-4.29651033 148.36346111 -4.30331535 146.78332164 -4.31088257 145.20318604 C-4.32857208 140.90776197 -4.33323915 136.61241754 -4.33451414 132.31696057 C-4.33641172 128.73333515 -4.34376752 125.14972834 -4.35085833 121.56611007 C-4.36715071 113.11299285 -4.37202647 104.65991823 -4.37060547 96.20678711 C-4.36940344 87.48108096 -4.39051547 78.75562193 -4.4220928 70.02997833 C-4.44822447 62.54285661 -4.45897409 55.05581575 -4.45769465 47.56864876 C-4.45718415 43.09493353 -4.46291598 38.6214379 -4.48405075 34.14776802 C-4.50338124 29.94110124 -4.50359351 25.73486472 -4.48901749 21.52818298 C-4.48692188 19.98341177 -4.49167491 18.438614 -4.5037384 16.89388847 C-4.519132 14.78642084 -4.50992436 12.68044779 -4.49447632 10.57301331 C-4.49556585 9.39332757 -4.49665539 8.21364183 -4.49777794 6.99820805 C-3.90316676 3.41675562 -2.78038393 2.2439489 0 0 Z " fill="#687EDD" transform="translate(342,99)"/>
<path d="M0 0 C4 1 4 1 5.37207031 3.04125977 C5.77006836 3.91580811 6.16806641 4.79035645 6.578125 5.69140625 C7.01640625 6.63564453 7.4546875 7.57988281 7.90625 8.55273438 C8.3496875 9.54595703 8.793125 10.53917969 9.25 11.5625 C9.93835938 13.05813477 9.93835938 13.05813477 10.640625 14.58398438 C11.77337616 17.05007804 12.88837904 19.5243098 14 22 C14.33 14.74 14.66 7.48 15 0 C15.99 0 16.98 0 18 0 C18 10.56 18 21.12 18 32 C17.01 32 16.02 32 15 32 C13.35131374 28.56386118 11.70654396 25.12586207 10.0625 21.6875 C9.59392578 20.71103516 9.12535156 19.73457031 8.64257812 18.72851562 C8.19462891 17.79072266 7.74667969 16.85292969 7.28515625 15.88671875 C6.87144775 15.02264404 6.45773926 14.15856934 6.03149414 13.26831055 C5 11 5 11 4 8 C3.67 15.92 3.34 23.84 3 32 C2.01 32 1.02 32 0 32 C0 21.44 0 10.88 0 0 Z " fill="#656E77" transform="translate(586,281)"/>
<path d="M0 0 C0.99 0.33 1.98 0.66 3 1 C3.75195312 2.77490234 3.75195312 2.77490234 4.28125 5.0859375 C4.48210205 5.92995117 4.6829541 6.77396484 4.88989258 7.64355469 C5.19189575 8.99562012 5.19189575 8.99562012 5.5 10.375 C5.93014435 12.20072018 6.36112877 14.02624265 6.79296875 15.8515625 C6.99841309 16.73618164 7.20385742 17.62080078 7.41552734 18.53222656 C8.48666395 23.05480335 9.73828343 27.5275738 11 32 C10.01 32 9.02 32 8 32 C7.34 29.03 6.68 26.06 6 23 C2.37 23 -1.26 23 -5 23 C-5.33 25.97 -5.66 28.94 -6 32 C-6.99 32 -7.98 32 -9 32 C-2.22257053 2.22257053 -2.22257053 2.22257053 0 0 Z " fill="#606770" transform="translate(412,281)"/>
<path d="M0 0 C0.99 0 1.98 0 3 0 C4.14425631 4.07375028 5.28344567 8.14887304 6.41796875 12.2253418 C6.80460005 13.61179775 7.19261125 14.99786966 7.58203125 16.38354492 C8.14166005 18.3757949 8.69630551 20.369375 9.25 22.36328125 C9.58515625 23.56251221 9.9203125 24.76174316 10.265625 25.99731445 C11 29 11 29 11 32 C10.34 32 9.68 32 9 32 C7.50178941 28.62902617 7 26.79557881 7 23 C3.37 23 -0.26 23 -4 23 C-4.66 25.97 -5.32 28.94 -6 32 C-6.66 32 -7.32 32 -8 32 C-7.29304559 25.1395551 -5.33617314 18.67589812 -3.4375 12.0625 C-2.9434668 10.32129883 -2.9434668 10.32129883 -2.43945312 8.54492188 C-1.6303404 5.69543794 -0.81708013 2.84720753 0 0 Z " fill="#5B636C" transform="translate(501,281)"/>
<path d="M0 0 C0.99 0 1.98 0 3 0 C5.64 6.27 8.28 12.54 11 19 C11.928125 16.97875 12.85625 14.9575 13.8125 12.875 C15.80161808 8.54314285 17.84755187 4.25318579 20 0 C20.66 0 21.32 0 22 0 C22 10.56 22 21.12 22 32 C21.34 32 20.68 32 20 32 C19.505 20.12 19.505 20.12 19 8 C17.02 12.95 15.04 17.9 13 23 C11.68 22.67 10.36 22.34 9 22 C7.70650827 19.43378361 6.70932263 17.11975044 5.75 14.4375 C4.8425 11.983125 3.935 9.52875 3 7 C2.67 15.25 2.34 23.5 2 32 C1.34 32 0.68 32 0 32 C0 21.44 0 10.88 0 0 Z " fill="#4C555F" transform="translate(641,281)"/>
<path d="M0 0 C5.28 0 10.56 0 16 0 C16 0.66 16 1.32 16 2 C11.71 2 7.42 2 3 2 C3 5.96 3 9.92 3 14 C7.29 14 11.58 14 16 14 C16 14.99 16 15.98 16 17 C11.71 17 7.42 17 3 17 C3 20.96 3 24.92 3 29 C7.62 29 12.24 29 17 29 C17 29.99 17 30.98 17 32 C11.39 32 5.78 32 0 32 C0 21.44 0 10.88 0 0 Z " fill="#636B74" transform="translate(667,281)"/>
<path d="M0 0 C2.97 0.495 2.97 0.495 6 1 C6.84205836 3.37922307 7.14174203 4.59929592 6.28735352 7.01464844 C5.90506592 7.7059082 5.52277832 8.39716797 5.12890625 9.109375 C4.71962891 9.86347656 4.31035156 10.61757812 3.88867188 11.39453125 C3.45103516 12.17183594 3.01339844 12.94914063 2.5625 13.75 C2.12873047 14.54277344 1.69496094 15.33554688 1.24804688 16.15234375 C0.17607546 18.10780809 -0.90678122 20.05635908 -2 22 C-4.64 22 -7.28 22 -10 22 C-8.4719611 16.90117545 -6.28963144 12.34334341 -3.875 7.625 C-3.50246094 6.88894531 -3.12992187 6.15289062 -2.74609375 5.39453125 C-1.8343878 3.59449642 -0.91770068 1.79698598 0 0 Z " fill="#3B4A58" transform="translate(441,234)"/>
<path d="M0 0 C2.97534329 2.5399272 3.90364743 3.91603362 4.25 7.8125 C4.1675 8.534375 4.085 9.25625 4 10 C3.01 10 2.02 10 1 10 C0.690625 8.865625 0.38125 7.73125 0.0625 6.5625 C-0.62924531 3.21224901 -0.62924531 3.21224901 -2 2 C-4.45809998 1.7499227 -4.45809998 1.7499227 -7 2 C-9.34886432 3.94074886 -9.34886432 3.94074886 -9.4375 7.4375 C-9.41333911 11.07686736 -9.41333911 11.07686736 -6.875 12.6875 C-5.92625 13.120625 -4.9775 13.55375 -4 14 C1.73033708 17.59550562 1.73033708 17.59550562 4 21 C4.33275864 24.90991408 4.20387919 27.69418121 2 31 C-0.32686453 32.16343227 -1.84721413 32.19895988 -4.4375 32.25 C-5.21996094 32.27578125 -6.00242187 32.3015625 -6.80859375 32.328125 C-9 32 -9 32 -10.7421875 30.71484375 C-12.70170161 28.04333227 -12.69519661 25.23091598 -13 22 C-12.01 22 -11.02 22 -10 22 C-9.34 24.31 -8.68 26.62 -8 29 C-4.58343976 29.16677282 -4.58343976 29.16677282 -1 29 C1.33966344 27.08445762 1.33966344 27.08445762 1.3125 23.75 C-0.26874198 19.23216578 -1.32357811 18.90388581 -5.4375 16.75 C-6.42621094 16.29109375 -7.41492188 15.8321875 -8.43359375 15.359375 C-11 14 -11 14 -13 11 C-13.41467826 7.19878263 -13.52577308 4.89152827 -11.5625 1.5625 C-7.77270223 -0.7483523 -4.3201162 -0.91951097 0 0 Z " fill="#50575E" transform="translate(437,281)"/>
<path d="M0 0 C0.7528125 -0.0103125 1.505625 -0.020625 2.28125 -0.03125 C5.3704305 0.70841294 6.49993436 2.06074468 8.5 4.5 C9.01757812 7.09375 9.01757812 7.09375 9.03125 10 C9.03640625 11.051875 9.0415625 12.10375 9.046875 13.1875 C9.03140625 14.280625 9.0159375 15.37375 9 16.5 C9.01546875 17.593125 9.0309375 18.68625 9.046875 19.8125 C9.04171875 20.864375 9.0365625 21.91625 9.03125 23 C9.02673828 23.9590625 9.02222656 24.918125 9.01757812 25.90625 C8.35670529 29.21809575 7.10335061 30.41593235 4.5 32.5 C2.24609375 32.99609375 2.24609375 32.99609375 -0.0625 32.9375 C-0.82691406 32.93621094 -1.59132813 32.93492187 -2.37890625 32.93359375 C-4.9797944 32.40192048 -5.85584927 31.54394422 -7.5 29.5 C-9.49404046 25.51191908 -8.77258758 20.51004473 -8.8125 16.125 C-8.84150391 15.07054687 -8.87050781 14.01609375 -8.90039062 12.9296875 C-8.90876953 11.91390625 -8.91714844 10.898125 -8.92578125 9.8515625 C-8.94036377 8.92166504 -8.95494629 7.99176758 -8.9699707 7.03369141 C-8.0572025 2.11280391 -4.83670571 -0.06625624 0 0 Z M-5.19165039 3.72680664 C-7.77047686 7.2218648 -6.96843931 11.75506764 -6.9375 15.9375 C-6.95748047 16.89205078 -6.97746094 17.84660156 -6.99804688 18.83007812 C-7.05059154 24.32717118 -7.05059154 24.32717118 -4.6640625 29.12890625 C-1.70923598 31.00100753 0.07163396 31.08355167 3.5 30.5 C6.26839049 27.61873872 6.88254294 25.5655933 6.8984375 21.62109375 C6.90230469 20.70005859 6.90617188 19.77902344 6.91015625 18.83007812 C6.89855469 17.87552734 6.88695312 16.92097656 6.875 15.9375 C6.88660156 14.97908203 6.89820313 14.02066406 6.91015625 13.03320312 C6.90628906 12.11345703 6.90242187 11.19371094 6.8984375 10.24609375 C6.89505371 9.40747803 6.89166992 8.5688623 6.88818359 7.70483398 C6.41065679 4.99254182 5.71490209 4.10419184 3.5 2.5 C-1.11153671 1.91004317 -1.11153671 1.91004317 -5.19165039 3.72680664 Z " fill="#424C57" transform="translate(574.5,280.5)"/>
<path d="M0 0 C2.1640625 0.34765625 2.1640625 0.34765625 4.7265625 1.97265625 C6.5265729 4.94658648 6.47474991 6.93009474 6.1640625 10.34765625 C5.5040625 10.34765625 4.8440625 10.34765625 4.1640625 10.34765625 C3.5040625 7.70765625 2.8440625 5.06765625 2.1640625 2.34765625 C-2.6256696 2.11337312 -2.6256696 2.11337312 -6.8359375 4.34765625 C-7.92176927 7.67238833 -7.92176927 7.67238833 -6.8359375 11.34765625 C-4.45021369 13.2352619 -2.02036202 14.59923615 0.68359375 15.98828125 C3.02238282 17.27001133 4.55190167 18.23823802 6.1640625 20.34765625 C6.9140625 27.09765625 6.9140625 27.09765625 4.6640625 30.84765625 C1.13670363 32.96407157 -1.82340592 33.15345153 -5.8359375 32.34765625 C-8.3359375 30.72265625 -8.3359375 30.72265625 -9.8359375 28.34765625 C-10.0859375 25.09765625 -10.0859375 25.09765625 -9.8359375 22.34765625 C-9.1759375 22.34765625 -8.5159375 22.34765625 -7.8359375 22.34765625 C-7.5265625 23.31703125 -7.2171875 24.28640625 -6.8984375 25.28515625 C-6.14070408 28.18831417 -6.14070408 28.18831417 -4.8359375 29.34765625 C-2.16534899 29.48880786 0.48838488 29.39012732 3.1640625 29.34765625 C3.57237095 25.30870321 3.57237095 25.30870321 3.1640625 21.34765625 C0.2615903 18.79071645 -2.5878935 17.4621381 -6.0859375 15.84765625 C-8.8359375 14.34765625 -8.8359375 14.34765625 -10.2734375 12.59765625 C-11.10962124 9.25292129 -10.62277708 6.67659294 -9.8359375 3.34765625 C-7.0412853 -0.35568654 -4.37526328 -0.16389423 0 0 Z " fill="#474E54" transform="translate(484.8359375,280.65234375)"/>
<path d="M0 0 C5.28 0 10.56 0 16 0 C16 0.66 16 1.32 16 2 C11.71 2 7.42 2 3 2 C3 6.29 3 10.58 3 15 C7.29 15 11.58 15 16 15 C16 15.99 16 16.98 16 18 C11.71 18 7.42 18 3 18 C3 22.62 3 27.24 3 32 C2.01 32 1.02 32 0 32 C0 21.44 0 10.88 0 0 Z " fill="#515A65" transform="translate(515,281)"/>
<path d="M0 0 C5.28 0 10.56 0 16 0 C16 0.66 16 1.32 16 2 C11.71 2 7.42 2 3 2 C3 6.29 3 10.58 3 15 C7.29 15 11.58 15 16 15 C16 15.99 16 16.98 16 18 C11.71 18 7.42 18 3 18 C3 22.62 3 27.24 3 32 C2.01 32 1.02 32 0 32 C0 21.44 0 10.88 0 0 Z " fill="#525B64" transform="translate(389,281)"/>
<path d="M0 0 C4.95 0 9.9 0 15 0 C15 0.66 15 1.32 15 2 C10.71 2 6.42 2 2 2 C2 5.96 2 9.92 2 14 C6.29 14 10.58 14 15 14 C15 14.99 15 15.98 15 17 C10.71 17 6.42 17 2 17 C2 21.29 2 25.58 2 30 C6.62 30 11.24 30 16 30 C16 30.66 16 31.32 16 32 C10.72 32 5.44 32 0 32 C0 21.44 0 10.88 0 0 Z " fill="#4E5761" transform="translate(534,281)"/>
<path d="M0 0 C5.61 0 11.22 0 17 0 C17 0.66 17 1.32 17 2 C14.69 2 12.38 2 10 2 C10 11.9 10 21.8 10 32 C9.01 32 8.02 32 7 32 C7 22.1 7 12.2 7 2 C4.69 2 2.38 2 0 2 C0 1.34 0 0.68 0 0 Z " fill="#4B545F" transform="translate(615,281)"/>
<path d="M0 0 C2.97 0 5.94 0 9 0 C10.98 4.29 12.96 8.58 15 13 C14.01 13.33 13.02 13.66 12 14 C12 13.34 12 12.68 12 12 C11.34 12.66 10.68 13.32 10 14 C9.34 14.66 8.68 15.32 8 16 C5.36 10.72 2.72 5.44 0 0 Z " fill="#364452" transform="translate(374,127)"/>
<path d="M0 0 C0.33 0 0.66 0 1 0 C1 2.66666667 1 5.33333333 1 8 C1.99 8.99 2.98 9.98 4 11 C2.35 14.63 0.7 18.26 -1 22 C-1.66 21.34 -2.32 20.68 -3 20 C-3 19.34 -3 18.68 -3 18 C-3.928125 18.4640625 -3.928125 18.4640625 -4.875 18.9375 C-6.25 19.625 -7.625 20.3125 -9 21 C-7.50640515 16.15713185 -5.54966433 11.68649104 -3.375 7.125 C-2.88773437 6.09246094 -2.88773437 6.09246094 -2.390625 5.0390625 C-1.59676528 3.35794781 -0.79880442 1.67877079 0 0 Z " fill="#374555" transform="translate(432,189)"/>
<path d="M0 0 C0.99 0 1.98 0 3 0 C3 10.56 3 21.12 3 32 C2.01 32 1.02 32 0 32 C0 21.44 0 10.88 0 0 Z " fill="#49535D" transform="translate(634,281)"/>
<path d="M0 0 C5.28 0 10.56 0 16 0 C16 0.66 16 1.32 16 2 C13.69 2 11.38 2 9 2 C9 11.9 9 21.8 9 32 C8.34 32 7.68 32 7 32 C7 22.1 7 12.2 7 2 C4.69 2 2.38 2 0 2 C0 1.34 0 0.68 0 0 Z " fill="#333C46" transform="translate(442,281)"/>
<path d="M0 0 C2.29946417 3.44919626 2.80769035 6.1381022 3.625 10.1875 C3.88539063 11.45980469 4.14578125 12.73210937 4.4140625 14.04296875 C4.60742188 15.01878906 4.80078125 15.99460937 5 17 C2.03 17 -0.94 17 -4 17 C-2.91103333 11.24237834 -1.70663707 5.60752181 0 0 Z " fill="#F4F7F9" transform="translate(502,284)"/>
<path d="M0 0 C0.66 0 1.32 0 2 0 C2 10.56 2 21.12 2 32 C1.34 32 0.68 32 0 32 C-0.33 24.08 -0.66 16.16 -1 8 C-1.66 8.66 -2.32 9.32 -3 10 C-2.25 3.375 -2.25 3.375 0 0 Z " fill="#4A535C" transform="translate(661,281)"/>
<path d="M0 0 C0.66 0 1.32 0 2 0 C2.50588147 1.91512272 3.00448391 3.83216922 3.5 5.75 C3.7784375 6.81734375 4.056875 7.8846875 4.34375 8.984375 C5 12 5 12 5 16 C2.36 16 -0.28 16 -3 16 C-2.40984815 10.49191603 -1.43336231 5.35121931 0 0 Z " fill="#F5F8FA" transform="translate(412,285)"/>
<path d="M0 0 C1.04449911 3.13349732 0.93423645 3.98968256 0 7 C1.98 6.34 3.96 5.68 6 5 C5.38144369 6.6274637 4.75492695 8.25190356 4.125 9.875 C3.77695312 10.77992188 3.42890625 11.68484375 3.0703125 12.6171875 C2 15 2 15 0 17 C-0.33 15.68 -0.66 14.36 -1 13 C-1.99 13 -2.98 13 -4 13 C-4.99 14.98 -5.98 16.96 -7 19 C-7.66 18.67 -8.32 18.34 -9 18 C-6.03 12.06 -3.06 6.12 0 0 Z " fill="#3B4856" transform="translate(476,162)"/>
<path d="M0 0 C0.66 0 1.32 0 2 0 C2 10.56 2 21.12 2 32 C1.01 32 0.02 32 -1 32 C-1.33 30.02 -1.66 28.04 -2 26 C-1.34 26 -0.68 26 0 26 C0 17.42 0 8.84 0 0 Z " fill="#303D49" transform="translate(602,281)"/>
<path d="M0 0 C1.9375 0.375 1.9375 0.375 4 1 C5.3899408 3.7798816 5.18488204 5.9186326 5 9 C3.6 12.7 3.6 12.7 1 14 C-1.05859375 14.203125 -1.05859375 14.203125 -3.4375 14.25 C-4.21996094 14.27578125 -5.00242187 14.3015625 -5.80859375 14.328125 C-8 14 -8 14 -9.7421875 12.71484375 C-11.70170161 10.04333227 -11.69519661 7.23091598 -12 4 C-11.01 4 -10.02 4 -9 4 C-8.34 6.31 -7.68 8.62 -7 11 C-3.58343976 11.16677282 -3.58343976 11.16677282 0 11 C0.66 10.34 1.32 9.68 2 9 C1.58984222 4.34375005 1.58984222 4.34375005 0 0 Z " fill="#434951" transform="translate(436,299)"/>
<path d="M0 0 C1.32 0.33 2.64 0.66 4 1 C4 2.32 4 3.64 4 5 C3.34 5 2.68 5 2 5 C2 13.91 2 22.82 2 32 C1.34 32 0.68 32 0 32 C0 21.44 0 10.88 0 0 Z " fill="#4C5864" transform="translate(586,281)"/>
<path d="M0 0 C2.0717067 3.64881676 3.07568078 7.53233693 4.125 11.5625 C4.30675781 12.23474609 4.48851562 12.90699219 4.67578125 13.59960938 C5.43856971 16.48730855 6 18.9997421 6 22 C5.34 22 4.68 22 4 22 C2.50178941 18.62902617 2 16.79557881 2 13 C-1.63 13 -5.26 13 -9 13 C-8.67 12.01 -8.34 11.02 -8 10 C-5.03 10 -2.06 10 1 10 C0.649375 9.278125 0.29875 8.55625 -0.0625 7.8125 C-1.10409017 4.6877295 -0.89096572 3.11838004 0 0 Z " fill="#69707A" transform="translate(506,291)"/>
<path d="M0 0 C0.33 0 0.66 0 1 0 C1 3.96 1 7.92 1 12 C5.62 12 10.24 12 15 12 C15 12.99 15 13.98 15 15 C9.72 15 4.44 15 -1 15 C-0.67 10.05 -0.34 5.1 0 0 Z " fill="#525C65" transform="translate(669,298)"/>
<path d="M0 0 C0.66 0 1.32 0 2 0 C2.08678303 3.95819611 2.14031733 7.91614934 2.1875 11.875 C2.21263672 13.00292969 2.23777344 14.13085938 2.26367188 15.29296875 C2.27333984 16.36933594 2.28300781 17.44570313 2.29296875 18.5546875 C2.3086792 19.54968262 2.32438965 20.54467773 2.34057617 21.56982422 C2.22818604 22.37178223 2.1157959 23.17374023 2 24 C1.01 24.66 0.02 25.32 -1 26 C-0.67 17.42 -0.34 8.84 0 0 Z " fill="#3D4751" transform="translate(581,285)"/>
<path d="M0 0 C0.99 0.33 1.98 0.66 3 1 C3.20625 2.0725 3.4125 3.145 3.625 4.25 C5.4076948 9.11189492 7.61109756 9.94960779 12.1015625 12.15234375 C12.72804688 12.43207031 13.35453125 12.71179688 14 13 C13.01 13.66 12.02 14.32 11 15 C9.53686228 14.23832543 8.07963339 13.46529293 6.625 12.6875 C5.81289063 12.25824219 5.00078125 11.82898438 4.1640625 11.38671875 C2 10 2 10 0 7 C-0.07905064 4.66800612 -0.08798769 2.33167378 0 0 Z " fill="#4E565F" transform="translate(424,285)"/>
<path d="M0 0 C0.99 0.33 1.98 0.66 3 1 C2.01 2.485 2.01 2.485 1 4 C1 4.66 1 5.32 1 6 C0.68197057 7.66965451 0.35015049 9.33678518 0 11 C-2.97 10.505 -2.97 10.505 -6 10 C-4.79157144 5.56909529 -3.48331435 3.01887244 0 0 Z " fill="#2C3D4E" transform="translate(437,217)"/>
<path d="M0 0 C0.33 0.99 0.66 1.98 1 3 C4.3 3 7.6 3 11 3 C11 3.33 11 3.66 11 4 C7.7 4.33 4.4 4.66 1 5 C0.34 7.97 -0.32 10.94 -1 14 C-1.99 14 -2.98 14 -4 14 C-3.52525225 11.85318469 -3.04508251 9.70756772 -2.5625 7.5625 C-2.29566406 6.36753906 -2.02882813 5.17257812 -1.75390625 3.94140625 C-1 1 -1 1 0 0 Z " fill="#505761" transform="translate(407,299)"/>
<path d="M0 0 C0.33 0 0.66 0 1 0 C1.33 1.98 1.66 3.96 2 6 C8.93 6.495 8.93 6.495 16 7 C16 7.66 16 8.32 16 9 C10.72 9 5.44 9 0 9 C0 6.03 0 3.06 0 0 Z " fill="#373E47" transform="translate(534,304)"/>
<path d="M0 0 C0.66 0 1.32 0 2 0 C2 0.66 2 1.32 2 2 C5.3 2 8.6 2 12 2 C12 2.33 12 2.66 12 3 C8.37 3 4.74 3 1 3 C0.34 6.3 -0.32 9.6 -1 13 C-1.66 13 -2.32 13 -3 13 C-2.45144652 8.428721 -1.58255197 4.32564205 0 0 Z " fill="#49525B" transform="translate(496,300)"/>
<path d="M0 0 C0.99 0.33 1.98 0.66 3 1 C3.268125 1.94875 3.53625 2.8975 3.8125 3.875 C4.73798671 7.28111739 4.73798671 7.28111739 8.125 8.875 C9.07375 9.24625 10.0225 9.6175 11 10 C10.67 10.99 10.34 11.98 10 13 C8.70141061 12.43224464 7.41129559 11.84508337 6.125 11.25 C5.40570313 10.92515625 4.68640625 10.6003125 3.9453125 10.265625 C1.62108435 8.75347656 0.95180718 7.57781111 0 5 C-0.125 2.25 -0.125 2.25 0 0 Z " fill="#474E59" transform="translate(474,286)"/>
<path d="M0 0 C0.99 0.33 1.98 0.66 3 1 C3.38897161 2.62171239 3.76078298 4.24754925 4.125 5.875 C4.33382813 6.77992188 4.54265625 7.68484375 4.7578125 8.6171875 C4.83773438 9.40351563 4.91765625 10.18984375 5 11 C4.34 11.66 3.68 12.32 3 13 C2.67 10.03 2.34 7.06 2 4 C1.34 4 0.68 4 0 4 C-0.33 5.98 -0.66 7.96 -1 10 C-1.33 10 -1.66 10 -2 10 C-1.85950482 8.52031676 -1.71245174 7.04125484 -1.5625 5.5625 C-1.48128906 4.73878906 -1.40007812 3.91507812 -1.31640625 3.06640625 C-1 1 -1 1 0 0 Z " fill="#60676D" transform="translate(412,281)"/>
<path d="M0 0 C2.97 0 5.94 0 9 0 C7.75 2 7.75 2 6 4 C4.68 4 3.36 4 2 4 C1.67 4.66 1.34 5.32 1 6 C0.01 6 -0.98 6 -2 6 C-1.34 4.02 -0.68 2.04 0 0 Z " fill="#2F3D4A" transform="translate(469,113)"/>
<path d="M0 0 C0.78246094 -0.01417969 1.56492187 -0.02835937 2.37109375 -0.04296875 C4.5625 0.1875 4.5625 0.1875 7.5625 2.1875 C7.2325 3.1775 6.9025 4.1675 6.5625 5.1875 C5.5725 4.5275 4.5825 3.8675 3.5625 3.1875 C-0.28639483 2.97756028 -3.74983808 3.00744818 -7.4375 4.1875 C-7.1075 3.1975 -6.7775 2.2075 -6.4375 1.1875 C-4.0978331 0.01766655 -2.60358473 0.0213759 0 0 Z " fill="#424A54" transform="translate(574.4375,280.8125)"/>
<path d="M0 0 C1.98 0.66 3.96 1.32 6 2 C1.92000285 5.69749741 -1.86395088 7.2589664 -7 9 C-7 8.34 -7 7.68 -7 7 C-5.35 6.67 -3.7 6.34 -2 6 C-1.855625 5.195625 -1.71125 4.39125 -1.5625 3.5625 C-1 1 -1 1 0 0 Z " fill="#3A4652" transform="translate(264,273)"/>
<path d="M0 0 C0.99 0 1.98 0 3 0 C3.66 2.31 4.32 4.62 5 7 C7.97 7.495 7.97 7.495 11 8 C8 10 8 10 5.5 9.9375 C3 9 3 9 1.1875 6.6875 C0 4 0 4 0 0 Z " fill="#4B525A" transform="translate(424,303)"/>
<path d="M0 0 C2.31 0 4.62 0 7 0 C7 1.98 7 3.96 7 6 C5.68 6.33 4.36 6.66 3 7 C0 2.25 0 2.25 0 0 Z " fill="#304150" transform="translate(375,128)"/>
<path d="M0 0 C2.46800047 1.15173355 4.04783565 2.04783565 6 4 C6.23046875 5.875 6.23046875 5.875 6.1875 8 C6.18105469 8.70125 6.17460937 9.4025 6.16796875 10.125 C6 12 6 12 5 14 C4.34 14 3.68 14 3 14 C3.03480469 13.38511719 3.06960938 12.77023437 3.10546875 12.13671875 C3.13253906 11.32847656 3.15960938 10.52023437 3.1875 9.6875 C3.22230469 8.88699219 3.25710938 8.08648437 3.29296875 7.26171875 C2.9343151 4.49291259 2.02945675 3.81639042 0 2 C0 1.34 0 0.68 0 0 Z " fill="#3E454C" transform="translate(485,297)"/>
<path d="M0 0 C-1.15585285 3.91211733 -2.35534962 6.8745041 -5 10 C-5.66 7.69 -6.32 5.38 -7 3 C-3.375 0 -3.375 0 0 0 Z " fill="#444F5B" transform="translate(427,185)"/>
<path d="M0 0 C0.99 0.66 1.98 1.32 3 2 C2.67 2.99 2.34 3.98 2 5 C2.309375 5.9590625 2.309375 5.9590625 2.625 6.9375 C3 9 3 9 1.5625 11.25 C1.046875 11.8275 0.53125 12.405 0 13 C-2.44847349 7.95902516 -1.71847703 5.1554311 0 0 Z " fill="#2D3E4E" transform="translate(473,140)"/>
<path d="M0 0 C2.64465038 3.1254959 3.84414715 6.08788267 5 10 C-1.57142857 6 -1.57142857 6 -3 2 C-2.01 1.34 -1.02 0.68 0 0 Z " fill="#49525E" transform="translate(183,265)"/>
<path d="M0 0 C0.66 0.33 1.32 0.66 2 1 C0.75023244 4.65316671 0.32901247 5.78065836 -3 8 C-3.99 8 -4.98 8 -6 8 C-6 8.66 -6 9.32 -6 10 C-6.66 9.67 -7.32 9.34 -8 9 C-7.04663979 7.68388323 -6.08714226 6.37221039 -5.125 5.0625 C-4.59132812 4.33160156 -4.05765625 3.60070312 -3.5078125 2.84765625 C-2 1 -2 1 0 0 Z " fill="#3A4854" transform="translate(210,239)"/>
<path d="M0 0 C1.125 1.5 1.125 1.5 2 4 C1.57598348 6.7773082 0.81108065 9.29639783 0 12 C2.64 12 5.28 12 8 12 C8 12.33 8 12.66 8 13 C5.03 13 2.06 13 -1 13 C-2.20577428 8.05632546 -1.6290678 4.79137588 0 0 Z " fill="#777C85" transform="translate(409,289)"/>
<path d="M0 0 C0 2.31 0 4.62 0 7 C0.66 7 1.32 7 2 7 C1 10 1 10 -1.0625 11.1875 C-1.701875 11.455625 -2.34125 11.72375 -3 12 C-3 10.02 -3 8.04 -3 6 C-2.34 6 -1.68 6 -1 6 C-1.66 4.35 -2.32 2.7 -3 1 C-1 0 -1 0 0 0 Z " fill="#2D3D4E" transform="translate(377,147)"/>
<path d="M0 0 C0.66 0 1.32 0 2 0 C2.33292585 4.24480464 2.43885872 6.35542625 0 9.9375 C-0.66 10.618125 -1.32 11.29875 -2 12 C-2.99 11.67 -3.98 11.34 -5 11 C-4.0409375 10.2265625 -4.0409375 10.2265625 -3.0625 9.4375 C-0.44208319 6.34064377 -0.30610183 3.97932377 0 0 Z " fill="#7986DF" transform="translate(732,257)"/>
<path d="M0 0 C0.66 0 1.32 0 2 0 C1.34206835 1.67013418 0.67276716 3.3357865 0 5 C-0.680625 6.7634375 -0.680625 6.7634375 -1.375 8.5625 C-2.91798396 11.82650453 -4.29577411 13.66877078 -7 16 C-5.35433477 10.31497465 -2.70967216 5.23318364 0 0 Z " fill="#434F5A" transform="translate(432,221)"/>
<path d="M0 0 C1.35200437 4.05601311 0.52469124 6.0496636 -1 10 C-3.625 12.4375 -3.625 12.4375 -6 14 C-4.50829734 9.0276578 -2.39542583 4.58154261 0 0 Z " fill="#47535F" transform="translate(473,136)"/>
<path d="M0 0 C0.66 0.33 1.32 0.66 2 1 C1.67 1.66 1.34 2.32 1 3 C0.34 3 -0.32 3 -1 3 C-1.33 6.3 -1.66 9.6 -2 13 C-2.66 13 -3.32 13 -4 13 C-4.63019694 4.80743982 -4.63019694 4.80743982 -2 1.4375 C-1.34 0.963125 -0.68 0.48875 0 0 Z " fill="#7886E0" transform="translate(342,99)"/>
<path d="M0 0 C0.66 0 1.32 0 2 0 C2 2.31 2 4.62 2 7 C1.67 6.34 1.34 5.68 1 5 C0.34 5 -0.32 5 -1 5 C-1.33 6.65 -1.66 8.3 -2 10 C-2.6875 8.375 -2.6875 8.375 -3 6 C-1.5625 2.75 -1.5625 2.75 0 0 Z " fill="#3C4653" transform="translate(661,281)"/>
<path d="M0 0 C-0.598125 0.268125 -1.19625 0.53625 -1.8125 0.8125 C-5.54027009 2.83614662 -7.27817426 5.15900412 -9 9 C-9.1875 5.625 -9.1875 5.625 -9 2 C-5.5647952 -0.29013653 -4.014669 -0.17842973 0 0 Z " fill="#495059" transform="translate(434,281)"/>
<path d="M0 0 C0.33 0 0.66 0 1 0 C1.28875 1.0725 1.5775 2.145 1.875 3.25 C2.72820109 6.09400364 3.5636503 8.43508983 5 11 C1.83884224 9.63016497 1.0072908 9.0109362 -1 6 C-1.1875 3.375 -1.1875 3.375 -1 1 C-0.67 0.67 -0.34 0.34 0 0 Z " fill="#7C88DF" transform="translate(339,258)"/>
<path d="M0 0 C2.64465038 3.1254959 3.84414715 6.08788267 5 10 C4.01 10 3.02 10 2 10 C-0.09350689 6.5980513 -0.17942163 3.94727588 0 0 Z " fill="#414C5A" transform="translate(415,227)"/>
<path d="M0 0 C0.66 0.33 1.32 0.66 2 1 C1.071875 1.3403125 1.071875 1.3403125 0.125 1.6875 C-2.61410209 3.37929835 -3.05024472 4.99244161 -4 8 C-4.99 7.67 -5.98 7.34 -7 7 C-5.55609075 3.19333016 -3.65047197 1.73397418 0 0 Z " fill="#3F4B59" transform="translate(192,150)"/>
<path d="M0 0 C0.99 0.33 1.98 0.66 3 1 C3.33 3.64 3.66 6.28 4 9 C3.01 9 2.02 9 1 9 C-0.4783226 6.04335481 -0.06032783 3.25770263 0 0 Z " fill="#606872" transform="translate(424,285)"/>
<path d="M0 0 C0.33 0 0.66 0 1 0 C1.3636198 4.24223102 0.5393228 6.58168085 -2 10 C-2.66 10 -3.32 10 -4 10 C-2.8905928 6.51329166 -1.73662334 3.22515763 0 0 Z " fill="#505B67" transform="translate(432,189)"/>
<path d="M0 0 C1.125 3.75 1.125 3.75 0 6 C-0.66 6 -1.32 6 -2 6 C-2.33 6.66 -2.66 7.32 -3 8 C-3 7.34 -3 6.68 -3 6 C-3.66 5.67 -4.32 5.34 -5 5 C-3.35 3.35 -1.7 1.7 0 0 Z " fill="#3B4856" transform="translate(183,156)"/>
<path d="M0 0 C2.97 0 5.94 0 9 0 C9.66 1.65 10.32 3.3 11 5 C10.01 5 9.02 5 8 5 C7.67 4.34 7.34 3.68 7 3 C7.33 2.34 7.66 1.68 8 1 C5.36 1 2.72 1 0 1 C0 0.67 0 0.34 0 0 Z " fill="#68717C" transform="translate(374,127)"/>
<path d="M0 0 C2.97 0 5.94 0 9 0 C9 0.33 9 0.66 9 1 C7.88625 1.103125 6.7725 1.20625 5.625 1.3125 C4.42875 1.539375 3.2325 1.76625 2 2 C1.01 3.485 1.01 3.485 0 5 C-0.66 4.67 -1.32 4.34 -2 4 C-1.34 2.68 -0.68 1.36 0 0 Z " fill="#6A747C" transform="translate(469,113)"/>
<path d="M0 0 C2.46800047 1.15173355 4.04783565 2.04783565 6 4 C6 4.99 6 5.98 6 7 C5.34 7 4.68 7 4 7 C0 2.52941176 0 2.52941176 0 0 Z " fill="#858EE0" transform="translate(728,99)"/>
<path d="M0 0 C0.66 0.66 1.32 1.32 2 2 C3.98821313 2.39764263 5.98944339 2.73775349 8 3 C5 5 5 5 2.375 4.75 C1.59125 4.5025 0.8075 4.255 0 4 C-0.33 3.34 -0.66 2.68 -1 2 C-0.67 1.34 -0.34 0.68 0 0 Z " fill="#555B63" transform="translate(427,308)"/>
<path d="M0 0 C0.99 0.33 1.98 0.66 3 1 C3.625 3.875 3.625 3.875 4 7 C3.34 7.66 2.68 8.32 2 9 C0.14223235 5.86501708 -0.20140476 3.62528568 0 0 Z " fill="#61676E" transform="translate(474,286)"/>
<path d="M0 0 C0 0.33 0 0.66 0 1 C-3.3 1.66 -6.6 2.32 -10 3 C-9.67 2.01 -9.34 1.02 -9 0 C-5.93109813 -1.53445094 -3.29905734 -0.54984289 0 0 Z " fill="#575E68" transform="translate(577,282)"/>
<path d="M0 0 C0.66 0.66 1.32 1.32 2 2 C1.01 3.98 0.02 5.96 -1 8 C-2.0625 6.125 -2.0625 6.125 -3 4 C-2.67 3.34 -2.34 2.68 -2 2 C-1.34 2 -0.68 2 0 2 C0 1.34 0 0.68 0 0 Z " fill="#3E4B57" transform="translate(482,131)"/>
</svg>
